<?xml version="1.0" encoding="UTF-8"?>
<svg width="400px" height="399px" viewBox="0 0 400 399" version="1.1" xmlns="http://www.w3.org/2000/svg" xmlns:xlink="http://www.w3.org/1999/xlink">
    <title>Group 11</title>
    <defs>
        <polygon id="path-1" points="0.00048224778 0.68475 399.711069 0.68475 399.711069 350.25 0.00048224778 350.25"></polygon>
        <polygon id="path-3" points="0 399 399 399 399 9 0 9"></polygon>
    </defs>
    <g id="Page-1" stroke="none" stroke-width="1" fill="none" fill-rule="evenodd">
        <g id="01_LP_Homepage" transform="translate(-747.000000, -2590.000000)">
            <g id="Group-13" transform="translate(114.000000, 2590.000000)">
                <g id="Group-11" transform="translate(633.000000, 0.000000)">
                    <g id="Group-3" transform="translate(200.000000, 215.500000) scale(-1, 1) translate(-200.000000, -215.500000) translate(0.000000, 40.000000)">
                        <mask id="mask-2" fill="white">
                            <use xlink:href="#path-1"></use>
                        </mask>
                        <g id="Clip-2"></g>
                        <path d="M375.020263,191.37225 C373.781989,193.35975 372.547467,195.3135 371.230394,197.25975 C359.710694,214.551 345.414259,231.15975 329.583114,246.426 C328.866417,247.13475 328.115947,247.851 327.369231,248.55975 C325.114071,250.69725 322.787617,252.8385 320.461163,254.89725 C316.449906,258.576 312.318574,262.13475 308.115947,265.54725 C305.902064,267.42225 303.616886,269.2635 301.361726,271.05975 C275.174109,291.7635 247.181614,309.876 219.598124,323.52225 C211.046529,327.801 202.491182,331.62225 194.048405,334.92225 C149.99212,352.3635 108.982739,356.451 80.6900563,339.15975 C71.6806754,333.68475 63.9883677,326.03475 57.872045,315.951 C56.8964353,314.33475 55.9208255,312.72225 54.9452158,311.1135 C45.9058161,295.99725 37.2716698,280.8135 29.6919325,265.54725 C27.8908068,261.98475 26.2060038,258.4635 24.5549719,254.89725 C-2.94971857,195.83475 -13.4225141,136.05975 25.5643527,77.25975 C40.7238274,54.3885 65.6056285,36.576 95.4705441,23.97225 C103.99212,20.3385 112.881426,17.18475 122.115947,14.44725 C126.656285,13.02225 131.230394,11.78475 135.920826,10.6635 C141.81576,9.1635 147.81576,7.851 153.894559,6.72225 C158.55122,5.826 163.200375,5.0385 167.890807,4.35975 C169.842026,4.101 171.793246,3.8385 173.744465,3.57225 C187.590619,1.8135 201.62439,0.83475 215.586867,0.726 C217.421764,0.68475 219.260413,0.68475 221.065291,0.68475 C229.508068,0.726 237.872045,1.05975 246.127205,1.7385 C248.341088,1.8885 250.554972,2.076 252.768856,2.33475 C294.907692,6.426 333.556848,18.49725 359.823265,38.526 C365.564353,42.9135 370.708818,47.63475 375.170356,52.776 C375.999625,53.7135 376.787617,54.651 377.534334,55.62225 C377.796998,55.92225 378.025891,56.22225 378.284803,56.526 C383.725704,63.34725 388.078424,70.401 391.346717,77.601 C408.044653,113.9385 398.284803,154.02225 375.020263,191.37225" id="Fill-1" fill="#FAF7F2" mask="url(#mask-2)"></path>
                    </g>
                    <path d="M69.8276772,340.316465 C59.7458967,350.942294 52.5675793,366.137078 63.411659,375.139724 C75.5225005,385.190676 100.502746,382.857352 113.416991,363.893931 C121.671496,351.780186 126.039769,332.628896 116.895915,321.88659 C109.067402,312.68856 82.1963552,327.278409 69.8276772,340.316465" id="Fill-4" fill="#FAF7F2" transform="translate(90.000000, 350.000000) scale(-1, 1) translate(-90.000000, -350.000000) "></path>
                    <path d="M142.08218,337.876119 C139.573544,337.984761 137.027465,338.063432 134.556271,338.063432 C134.294174,338.063432 134.106963,338.284462 134.106963,338.550448 C134.106963,338.771478 134.294174,339 134.556271,339 C137.064907,339 139.573544,338.921328 142.119622,338.812686 C142.381719,338.812686 142.56893,338.584164 142.56893,338.325671 C142.531488,338.100895 142.306834,337.876119 142.08218,337.876119 M127.067804,337.951044 C124.521725,337.876119 121.975646,337.726268 119.579337,337.576417 C119.242356,337.538955 119.092587,337.726268 119.055144,337.984761 C119.055144,338.250746 119.242356,338.475522 119.504452,338.512985 C121.938204,338.662836 124.484283,338.812686 127.030362,338.887612 C127.292458,338.887612 127.517112,338.700298 127.517112,338.434313 C127.517112,338.175821 127.3299,337.951044 127.067804,337.951044 M157.059114,336.789701 C154.550477,337.048193 152.041841,337.276716 149.570647,337.464029 C149.308551,337.464029 149.121339,337.685059 149.121339,337.951044 C149.158781,338.213283 149.345993,338.400597 149.608089,338.400597 L149.645532,338.400597 C152.116726,338.213283 154.625362,337.984761 157.133998,337.726268 C157.396095,337.685059 157.583307,337.464029 157.583307,337.198044 C157.545864,336.939551 157.32121,336.748492 157.059114,336.789701 M112.09087,336.827163 C109.619676,336.561178 107.11104,336.190297 104.677288,335.774461 C104.415192,335.740745 104.190537,335.890596 104.115653,336.152835 C104.07821,336.411327 104.265422,336.63985 104.527519,336.677312 C106.96127,337.126865 109.469907,337.464029 111.978543,337.763731 L112.053428,337.763731 C112.278082,337.763731 112.465293,337.61388 112.502736,337.347895 C112.540178,337.089402 112.352966,336.86088 112.09087,336.827163 M171.961163,334.804177 C169.415084,335.175058 166.94389,335.553431 164.510138,335.890596 C164.248042,335.924312 164.06083,336.152835 164.098273,336.411327 C164.135715,336.63985 164.360369,336.827163 164.585023,336.827163 L164.622465,336.827163 C167.056217,336.489999 169.564854,336.111626 172.110932,335.703282 C172.335586,335.665819 172.522798,335.441043 172.485356,335.175058 C172.447913,334.916565 172.223259,334.766715 171.961163,334.804177 M97.3385903,334.279699 C94.8673962,333.717759 92.4336445,333.080893 90.0747774,332.406564 C89.812681,332.331639 89.5505847,332.444027 89.4757,332.706266 C89.4008154,332.964759 89.5505847,333.230744 89.812681,333.301923 C92.0966634,333.938789 94.4180882,334.579401 96.7769553,335.141342 C96.8892823,335.175058 97.0016093,335.175058 97.1139363,335.216267 L97.2262633,335.216267 C97.3011479,335.216267 97.3760326,335.175058 97.4509173,335.141342 L97.4883596,335.103879 C97.6006866,335.066416 97.638129,334.954028 97.6755713,334.837894 C97.7130136,334.616864 97.5632443,334.354625 97.3385903,334.279699 M186.713443,331.994475 C184.279691,332.515206 181.771055,333.04343 179.412188,333.492983 L179.337303,333.492983 C179.075207,333.530445 178.925437,333.751475 178.96288,334.01746 C179.000322,334.23849 179.224976,334.388341 179.44963,334.388341 L179.524515,334.388341 C181.20942,334.08864 182.931767,333.751475 184.654114,333.380595 C185.402961,333.230744 186.151808,333.080893 186.900654,332.893579 C187.162751,332.856117 187.31252,332.593878 187.275078,332.331639 C187.200193,332.106863 186.975539,331.919549 186.713443,331.994475 M201.315953,328.431771 C198.957086,329.068637 196.523334,329.705503 194.05214,330.304907 C193.790044,330.383578 193.640275,330.608355 193.715159,330.870593 C193.752602,331.091623 193.939813,331.241474 194.164467,331.241474 C194.20191,331.241474 194.239352,331.241474 194.276794,331.207758 C196.747988,330.608355 199.219182,329.971489 201.57805,329.368339 C201.802704,329.29716 201.952473,329.034921 201.915031,328.768936 C201.840146,328.547906 201.57805,328.398055 201.315953,328.431771 M82.9607338,330.005205 C82.1370025,329.705503 81.3507134,329.405802 80.5269821,329.068637 C78.9918464,328.469234 77.5315953,327.798652 76.0713443,327.124323 C75.8466903,327.011935 75.5471516,327.124323 75.4348246,327.345353 C75.3224976,327.573876 75.4348246,327.873577 75.6594786,327.982219 C77.2320566,328.735219 78.8795194,329.405802 80.5269821,330.083877 C81.2009441,330.383578 81.9123485,330.642071 82.6237528,330.908056 L82.8109645,330.908056 C82.9981762,330.908056 83.1853878,330.791922 83.2602725,330.608355 C83.3351572,330.383578 83.2228302,330.121339 82.9607338,330.005205 M215.731252,324.235949 C215.244502,324.3858 214.757751,324.573113 214.233559,324.722964 C212.398884,325.288651 210.489325,325.888054 208.579766,326.446248 C208.31767,326.52492 208.1679,326.74595 208.242785,327.011935 C208.31767,327.236711 208.504881,327.345353 208.692093,327.345353 L208.841862,327.345353 C210.713979,326.787159 212.623538,326.225218 214.42077,325.659531 C214.982405,325.472218 215.506598,325.322367 216.030791,325.1388 C216.255445,325.063874 216.405214,324.801636 216.330329,324.53565 C216.255445,324.31462 215.993348,324.16477 215.731252,324.235949 M69.4066087,323.677754 L69.1445124,323.490441 C67.0477417,322.291634 65.0258556,321.017903 63.0788542,319.669245 C62.8916425,319.519394 62.5921039,319.59432 62.4423345,319.819096 C62.2925652,320.002663 62.3674498,320.306111 62.5546615,320.455962 C64.5016629,321.76341 66.5609913,323.078351 68.657762,324.31462 L68.9573007,324.501934 C69.0321854,324.53565 69.1070701,324.53565 69.1819547,324.53565 C69.3691664,324.53565 69.5189357,324.464471 69.5938204,324.31462 C69.7435897,324.086098 69.6312627,323.786396 69.4066087,323.677754 M229.959339,319.40326 C227.600472,320.268648 225.204163,321.092828 222.882738,321.913261 C222.620642,321.991933 222.508315,322.254172 222.583199,322.478948 C222.658084,322.699978 222.807853,322.812366 223.032507,322.812366 C223.06995,322.812366 223.107392,322.812366 223.182277,322.77865 C225.541144,321.991933 227.900011,321.126544 230.258878,320.268648 C230.520974,320.189977 230.633301,319.931484 230.558416,319.669245 C230.446089,319.40326 230.146551,319.294618 229.959339,319.40326 M244.56185,314.162228 C244.449523,313.899989 244.187426,313.783855 243.962772,313.899989 C241.67879,314.836557 239.319923,315.806841 236.961056,316.709692 C236.736402,316.82208 236.624075,317.080572 236.698959,317.346558 C236.773844,317.530125 236.961056,317.646259 237.148267,317.646259 C237.18571,317.646259 237.260594,317.608797 237.335479,317.608797 C239.694346,316.672229 242.053213,315.698199 244.299753,314.761631 C244.56185,314.649243 244.674177,314.383258 244.56185,314.162228 M57.0880807,315.207437 C56.226907,314.536855 55.3657333,313.825064 54.5794443,313.146989 C53.4936166,312.210421 52.4826735,311.240137 51.4717305,310.303569 C51.2845188,310.116256 50.9849802,310.116256 50.7977685,310.303569 C50.6105568,310.487137 50.6105568,310.790585 50.7977685,310.974152 C51.9959232,312.101779 53.2315202,313.22566 54.5420019,314.312079 C55.1785216,314.870273 55.8150413,315.43596 56.4890033,315.956691 C56.563888,316.035363 56.676215,316.072826 56.788542,316.072826 C56.9383113,316.072826 57.0506383,315.9979 57.1629653,315.885512 C57.3127347,315.698199 57.2752924,315.398497 57.0880807,315.207437 M258.340629,308.014598 C258.228302,307.756106 257.928763,307.677434 257.704109,307.793568 C255.532454,308.801315 253.323356,309.854017 250.852162,310.940435 C250.627508,311.015361 250.515181,311.315062 250.627508,311.539839 C250.702392,311.727152 250.889604,311.83954 251.039373,311.83954 C251.114258,311.83954 251.189143,311.802078 251.226585,311.760869 C253.697779,310.67445 255.944319,309.666704 258.115975,308.614002 C258.340629,308.50536 258.452956,308.243121 258.340629,308.014598 M46.3046883,304.867731 C44.6572256,302.994596 43.0846476,301.012819 41.6618389,299.027296 C41.5120695,298.798773 41.2125308,298.765057 40.9878768,298.914908 C40.8006652,299.064759 40.7632228,299.36446 40.9129922,299.551774 C42.2234739,301.424909 43.6837249,303.260581 45.1814183,305.017582 C45.3311876,305.171179 45.4435146,305.354746 45.593284,305.504597 C45.6681687,305.583269 45.817938,305.654448 45.930265,305.654448 C46.042592,305.654448 46.154919,305.620732 46.267246,305.545806 C46.4170153,305.395955 46.4544577,305.204896 46.379573,305.017582 C46.379573,304.946403 46.3421307,304.905194 46.3046883,304.867731 M271.782427,301.237595 C271.6701,301.012819 271.370561,300.937894 271.145907,301.050282 C269.011694,302.207879 266.727712,303.372969 264.481172,304.49685 C264.256518,304.609239 264.181633,304.834015 264.256518,305.017582 C264.219075,305.055045 264.256518,305.096254 264.256518,305.133716 C264.331402,305.283567 264.518614,305.395955 264.668383,305.395955 C264.743268,305.395955 264.818153,305.354746 264.893037,305.32103 C265.080249,305.204896 265.304903,305.133716 265.492115,305.017582 C267.588885,304.009835 269.610771,302.923417 271.595215,301.874461 C271.819869,301.758327 271.894754,301.458625 271.782427,301.237595 M284.887244,293.857443 C284.774917,293.62892 284.475378,293.557741 284.250724,293.666383 C283.838858,293.894906 283.464435,294.157144 283.052569,294.381921 C281.330222,295.430876 279.570432,296.438623 277.735758,297.453862 C277.511104,297.562504 277.436219,297.862206 277.585989,298.090728 C277.660873,298.240579 277.810643,298.311758 277.997854,298.311758 C278.072739,298.311758 278.147624,298.311758 278.222508,298.278042 C280.431606,297.00431 282.640704,295.730578 284.737475,294.494309 C284.774917,294.456846 284.812359,294.415637 284.849802,294.381921 C284.999571,294.23207 284.999571,294.044756 284.887244,293.857443 M37.6180667,292.729815 C36.3450274,290.598188 35.184315,288.346679 34.173372,286.102663 C34.061045,285.877887 33.7615063,285.765499 33.5368523,285.877887 C33.3121983,285.986529 33.1998713,286.252514 33.3121983,286.514753 C34.3605836,288.762515 35.521296,291.04774 36.7943354,293.220577 C36.86922,293.370428 37.0189894,293.445353 37.2062011,293.445353 C37.2810857,293.445353 37.3559704,293.40789 37.4308551,293.370428 C37.6555091,293.25804 37.7303937,292.958338 37.6180667,292.729815 M297.65508,285.91535 C297.65508,285.877887 297.617638,285.836678 297.617638,285.802962 C297.467868,285.578185 297.16833,285.536976 296.981118,285.653111 C296.831349,285.728036 296.719022,285.836678 296.569252,285.91535 C295.520867,286.623395 294.397597,287.376395 293.311769,288.046978 C292.450595,288.646381 291.551979,289.212068 290.690806,289.774008 C290.466152,289.88265 290.391267,290.186098 290.541036,290.410874 C290.615921,290.560725 290.76569,290.63565 290.91546,290.63565 C290.990344,290.63565 291.102671,290.598188 291.177556,290.560725 C292.488038,289.732799 293.761077,288.912366 295.034117,288.046978 C295.857848,287.526246 296.681579,287.001768 297.505311,286.439828 C297.65508,286.323693 297.729965,286.102663 297.65508,285.91535 M309.861281,277.074152 C309.711512,276.849376 309.411973,276.808167 309.224761,276.958017 C307.240318,278.460272 305.180989,279.95878 303.159103,281.419825 C302.934449,281.569676 302.897007,281.831915 303.046776,282.056691 C303.159103,282.169079 303.27143,282.240259 303.421199,282.240259 C303.533526,282.240259 303.608411,282.240259 303.720738,282.169079 C305.742624,280.704288 307.801953,279.209526 309.786396,277.707272 C310.01105,277.557421 310.048493,277.257719 309.861281,277.074152 M29.1560991,272.016687 C29.0812145,271.754448 28.8191181,271.604597 28.5570218,271.679523 C28.3323678,271.754448 28.1825984,272.016687 28.2200408,272.237717 C28.8940028,274.714002 29.6428495,277.149077 30.4665808,279.471765 C30.5414655,279.696541 30.6912348,279.808929 30.9158889,279.808929 C30.9533312,279.808929 30.9907735,279.808929 31.0656582,279.76772 C31.2903122,279.696541 31.4400815,279.430556 31.3277545,279.172063 C30.5040232,276.849376 29.7926188,274.448016 29.1560991,272.016687 M321.580732,267.554879 C321.39352,267.371312 321.093981,267.371312 320.90677,267.521163 C319.072095,269.094596 317.162536,270.701746 315.14065,272.353851 C314.953438,272.503702 314.915996,272.803404 315.065765,272.990717 C315.178092,273.103105 315.290419,273.174284 315.440189,273.174284 C315.552516,273.174284 315.6274,273.140568 315.739727,273.061896 C317.761614,271.454746 319.708615,269.806387 321.505847,268.232954 C321.730501,268.041894 321.730501,267.783401 321.580732,267.554879 M26.4976934,257.252636 C26.4976934,257.031606 26.2730394,256.803083 26.010943,256.844292 C25.7488467,256.881755 25.561635,257.102785 25.5990774,257.36877 C25.8611737,259.912488 26.1981547,262.422489 26.6100204,264.861311 C26.6474627,265.082341 26.8721167,265.232191 27.0967707,265.232191 L27.1716554,265.232191 C27.4337517,265.198475 27.5835211,264.973699 27.5460787,264.71146 C27.1342131,262.272638 26.7597897,259.803846 26.4976934,257.252636 M332.588778,257.331307 C332.401566,257.140248 332.102028,257.140248 331.914816,257.331307 C330.192469,259.054592 328.357794,260.815339 326.52312,262.538623 C326.335908,262.688474 326.298466,262.988175 326.485678,263.175489 C326.560562,263.287877 326.710332,263.32534 326.822659,263.32534 C326.934986,263.32534 327.047313,263.287877 327.15964,263.209205 C328.994314,261.485921 330.828988,259.72892 332.588778,257.968173 C332.77599,257.78086 332.77599,257.481158 332.588778,257.331307 M342.735651,246.201138 C342.548439,246.013825 342.2489,246.051287 342.061689,246.242347 C340.526553,248.115482 338.841648,250.02608 337.119301,251.899215 C336.932089,252.086529 336.969531,252.386231 337.156743,252.569798 C337.231628,252.648469 337.343955,252.685932 337.456282,252.685932 C337.606051,252.685932 337.718378,252.60726 337.793263,252.536081 C339.553052,250.625483 341.237957,248.711139 342.810535,246.838004 C342.960305,246.650691 342.922862,246.350989 342.735651,246.201138 M25.9360584,245.642944 C25.9360584,244.556526 25.9360584,243.432644 25.9735007,242.305017 C25.9735007,242.046524 25.786289,241.818002 25.5241927,241.818002 C25.2620963,241.818002 25.0374423,242.009062 25.0374423,242.267554 C25,243.391436 25,244.519063 25,245.642944 C25,247.066527 25.0374423,248.452647 25.0748847,249.838767 C25.0748847,250.063543 25.2995387,250.288319 25.5241927,250.288319 L25.561635,250.288319 C25.8237314,250.24711 26.010943,250.063543 26.010943,249.797558 C25.9735007,248.415184 25.9360584,247.029064 25.9360584,245.642944 M351.796696,234.21682 C351.572042,234.066969 351.309945,234.104431 351.160176,234.325461 C349.77481,236.348447 348.277116,238.408896 346.779423,240.394419 C346.592211,240.622942 346.667096,240.922643 346.854307,241.072494 C346.929192,241.109957 347.041519,241.14742 347.153846,241.14742 C347.266173,241.14742 347.415942,241.109957 347.528269,240.960106 C349.025963,238.974583 350.523656,236.914134 351.909023,234.853685 C352.058792,234.625163 352.02135,234.325461 351.796696,234.21682 M26.7972321,226.832921 C26.4976934,226.761742 26.3104817,226.949055 26.2730394,227.211294 C25.9360584,229.758758 25.673962,232.268759 25.449308,234.741297 C25.449308,235.003536 25.6365197,235.228313 25.898616,235.228313 L25.9360584,235.228313 C26.1607124,235.228313 26.3853664,235.040999 26.3853664,234.812477 C26.6100204,232.343684 26.8721167,229.833683 27.2090977,227.361145 C27.2465401,227.098906 27.0593284,226.832921 26.7972321,226.832921 M359.472374,221.254724 C359.24772,221.179799 358.985624,221.254724 358.835855,221.4795 C357.750027,223.614875 356.51443,225.825174 355.203948,227.998011 C355.054179,228.219041 355.129063,228.522489 355.353717,228.672339 C355.428602,228.706056 355.503487,228.706056 355.578371,228.706056 C355.765583,228.706056 355.915352,228.634877 355.990237,228.485026 C357.338161,226.274726 358.573758,224.064427 359.697028,221.89159 C359.809355,221.663068 359.697028,221.363366 359.472374,221.254724 M29.4930801,211.99769 C29.2309838,211.963974 29.0063298,212.113825 28.9314451,212.376064 C28.4072524,214.848602 27.8830598,217.317394 27.4337517,219.756216 C27.3963094,220.018455 27.5835211,220.243231 27.8081751,220.318157 L27.9205021,220.318157 C28.1451561,220.318157 28.3323678,220.168306 28.3698101,219.94353 C28.8191181,217.508454 29.3058685,215.035916 29.8675035,212.563377 C29.9049458,212.297392 29.7551765,212.076362 29.4930801,211.99769 M365.388263,207.430987 C365.126167,207.356061 364.86407,207.464703 364.789186,207.730688 C364.002897,210.015913 363.066838,212.376064 362.055895,214.698751 C361.943568,214.957244 362.055895,215.223229 362.317992,215.335617 C362.355434,215.335617 362.430319,215.37308 362.505203,215.37308 C362.654973,215.37308 362.842184,215.260692 362.917069,215.073378 C363.928012,212.713228 364.86407,210.353078 365.650359,208.03039 C365.762686,207.801868 365.612917,207.543375 365.388263,207.430987 M33.3870829,197.465908 C33.1624289,197.390982 32.9003326,197.540833 32.8254479,197.799326 C32.0766012,200.200685 31.3651969,202.632015 30.7286772,205.033374 C30.6912348,205.291867 30.8410042,205.557852 31.0656582,205.591568 C31.1031005,205.629031 31.1405429,205.629031 31.2154275,205.629031 C31.4026392,205.629031 31.5898509,205.482926 31.6647355,205.291867 C32.2638129,202.898 32.9752173,200.459178 33.7240639,198.065311 C33.7989486,197.799326 33.6491793,197.540833 33.3870829,197.465908 M369.357151,192.932921 C369.095054,192.857995 368.8704,193.045309 368.795516,193.266339 C368.271323,195.667698 367.634803,198.099028 366.960841,200.575312 C366.923399,200.800088 367.035726,201.058581 367.297822,201.137253 C367.335264,201.137253 367.372707,201.174715 367.410149,201.174715 C367.634803,201.174715 367.822015,201.024865 367.859457,200.800088 C368.533419,198.365013 369.169939,195.892474 369.731574,193.494861 C369.769016,193.232622 369.619247,192.966637 369.357151,192.932921 M38.2920288,183.230081 C38.0299324,183.151409 37.7678361,183.263797 37.6929514,183.49232 C36.7943354,185.85247 35.9331617,188.250083 35.1468727,190.606487 C35.0345456,190.835009 35.184315,191.093502 35.408969,191.209636 L35.5587383,191.209636 C35.7833923,191.209636 35.9331617,191.093502 36.0080463,190.909935 C36.8317777,188.549785 37.6929514,186.152172 38.5541251,183.829484 C38.6290098,183.600961 38.5166828,183.30126 38.2920288,183.230081 M372.052999,178.09769 C371.828345,178.060228 371.566248,178.247541 371.528806,178.50978 C371.191825,180.982318 370.779959,183.451111 370.330651,185.923649 C370.293209,186.189634 370.442978,186.410664 370.705075,186.489336 L370.779959,186.489336 C371.004613,186.489336 371.191825,186.339485 371.26671,186.110963 C371.716018,183.600961 372.127883,181.09096 372.464864,178.659631 C372.464864,178.397392 372.315095,178.131407 372.052999,178.09769 M43.9832636,169.293955 C43.7586096,169.181567 43.4965132,169.293955 43.3841862,169.552448 C42.3732432,171.841419 41.3623002,174.164107 40.4262418,176.486794 C40.3513572,176.707824 40.4636842,177.011272 40.6883382,177.086197 C40.7632228,177.12366 40.8006652,177.12366 40.8755498,177.12366 C41.0627615,177.12366 41.2125308,177.011272 41.2874155,176.823958 C42.2234739,174.534987 43.2344169,172.2123 44.2453599,169.930821 C44.3576869,169.668582 44.2453599,169.402597 43.9832636,169.293955 M373.36348,163.112609 C373.138826,163.146326 372.914172,163.296176 372.87673,163.562162 C372.764403,166.072163 372.614634,168.582164 372.38998,171.054702 C372.352537,171.316941 372.539749,171.541717 372.801845,171.575434 L372.839288,171.575434 C373.063942,171.575434 373.288596,171.391867 373.288596,171.125881 C373.550692,168.657089 373.700461,166.147088 373.812788,163.595878 C373.850231,163.374848 373.625577,163.146326 373.36348,163.112609 M50.4607875,155.694994 C50.2361335,155.582606 49.9365948,155.653785 49.8242678,155.882307 C48.7009977,158.13007 47.5777277,160.415295 46.5293423,162.65931 C46.4170153,162.925296 46.5293423,163.187535 46.7539964,163.296176 C46.828881,163.337385 46.8663234,163.337385 46.941208,163.337385 C47.1284197,163.337385 47.278189,163.26246 47.3530737,163.075146 C48.4389014,160.823638 49.5621714,158.542159 50.6854415,156.33186 C50.7977685,156.069621 50.6854415,155.803636 50.4607875,155.694994 M373.812788,148.535871 C373.812788,148.277379 373.588134,148.090065 373.326038,148.090065 C373.063942,148.090065 372.87673,148.314841 372.87673,148.57708 C372.989057,151.049619 373.063942,153.55962 373.063942,156.069621 C373.063942,156.33186 373.288596,156.556636 373.51325,156.556636 C373.775346,156.556636 374,156.33186 374,156.069621 C374,153.55962 373.925115,151.012156 373.812788,148.535871 M57.574831,142.395734 C57.350177,142.283346 57.0506383,142.358272 56.9383113,142.583048 C55.665272,144.789601 54.4671173,147.04111 53.3064049,149.213946 C53.1940779,149.438723 53.2689626,149.700961 53.4936166,149.81335 C53.5685012,149.850812 53.6433859,149.888275 53.7182706,149.888275 C53.8680399,149.888275 54.0552516,149.81335 54.1301363,149.626036 C55.2908486,147.490662 56.4890033,145.2429 57.7620427,143.0326 C57.8743697,142.807824 57.799485,142.545585 57.574831,142.395734 M372.38998,133.479611 C372.352537,133.217372 372.127883,133.030059 371.865787,133.104984 C371.603691,133.142447 371.453921,133.367223 371.491364,133.625716 C371.828345,136.102 372.127883,138.612001 372.352537,141.08454 C372.38998,141.346779 372.577191,141.496629 372.839288,141.496629 L372.87673,141.496629 C373.138826,141.496629 373.326038,141.271853 373.288596,141.009614 C373.063942,138.499613 372.764403,135.989612 372.38998,133.479611 M65.2505096,129.471102 C65.0632979,129.321251 64.7637593,129.396176 64.6139899,129.620953 C63.3035082,131.75258 61.9930265,133.891701 60.7199871,136.064538 C60.5702178,136.289314 60.6451025,136.551553 60.8697565,136.701403 C60.9446411,136.738866 61.0195258,136.776329 61.0944105,136.776329 C61.2816221,136.776329 61.4313915,136.701403 61.5062762,136.551553 C62.7793155,134.378716 64.0897972,132.243342 65.4002789,130.107968 C65.5500483,129.879445 65.4751636,129.620953 65.2505096,129.471102 M371.11694,125.762294 L371.079498,125.762294 C370.667632,123.402144 370.105997,121.041994 369.544362,118.640634 C369.50692,118.382142 369.244824,118.232291 368.982727,118.307216 C368.758073,118.344679 368.570861,118.606918 368.645746,118.869157 C369.207381,121.154382 369.694132,123.439607 370.14344,125.724831 C370.180882,125.874682 370.218324,126.05825 370.255767,126.211847 C370.293209,126.436623 370.480421,126.586474 370.705075,126.586474 L370.779959,126.586474 C371.042056,126.511548 371.191825,126.286772 371.154383,126.024533 C371.154383,125.949608 371.11694,125.83722 371.11694,125.762294 M73.6750349,116.621395 C73.4878232,116.471544 73.1882845,116.509007 73.0385152,116.733783 L72.8513035,116.996022 C71.4659371,119.05647 70.0431284,121.154382 68.6952044,123.248547 C68.545435,123.477069 68.5828774,123.776771 68.8075314,123.926622 C68.882416,123.964084 68.9947431,124.001547 69.0696277,124.001547 C69.2193971,124.001547 69.3691664,123.926622 69.4440511,123.776771 C70.8294174,121.67886 72.2147838,119.577202 73.6375925,117.5205 L73.8248042,117.258261 C73.9371312,117.070947 73.8996889,116.767499 73.6750349,116.621395 M367.073168,109.653332 C366.511533,107.780197 365.912456,105.944524 365.313378,104.146315 C365.238494,103.884076 364.938955,103.771687 364.714301,103.846613 C364.452205,103.959001 364.339878,104.22124 364.414762,104.446016 C365.126167,106.506465 365.800129,108.604376 366.436648,110.73975 C366.511533,111.039452 366.62386,111.301691 366.698745,111.601392 C366.773629,111.826169 366.960841,111.938557 367.148053,111.938557 L367.297822,111.938557 C367.522476,111.863631 367.672245,111.601392 367.597361,111.339153 C367.447591,110.777213 367.26038,110.211526 367.073168,109.653332 M82.3242141,104.296165 C82.0995601,104.146315 81.8000215,104.183777 81.6502521,104.408553 C80.2274434,106.431539 78.7671924,108.454525 77.3069413,110.552437 C77.157172,110.73975 77.2320566,111.039452 77.4192683,111.189303 C77.5315953,111.264228 77.60648,111.264228 77.718807,111.264228 C77.831134,111.264228 77.9809033,111.226765 78.0932303,111.073168 C79.5160391,109.016466 80.9762901,106.956017 82.4365411,104.933031 C82.5863105,104.708255 82.5114258,104.446016 82.3242141,104.296165 M91.2354898,92.1582495 C91.0108357,92.0083987 90.7487394,92.0458614 90.5615277,92.2331749 C89.0638344,94.2149519 87.566141,96.2416842 86.0684476,98.3021328 C85.9186783,98.4894463 85.9935629,98.789148 86.1807746,98.9389988 C86.2556593,99.0139242 86.3679863,99.0513869 86.4428709,99.0513869 C86.5926403,99.0513869 86.7424096,98.9727152 86.8547366,98.8266107 C88.3149877,96.8036247 89.812681,94.7806387 91.3103744,92.7951155 C91.4601438,92.607802 91.4227014,92.3081003 91.2354898,92.1582495 M362.654973,97.0658636 C362.430319,96.5039231 362.168222,95.9045198 361.906126,95.3051166 C361.793799,95.005415 361.64403,94.6682506 361.49426,94.3310863 C360.932625,92.9449663 360.296106,91.5213836 359.659586,90.1352636 C359.547259,89.9104873 359.285163,89.7980992 359.023066,89.9104873 C358.798412,90.0228755 358.686085,90.2851144 358.798412,90.5098906 C359.24772,91.4801746 359.697028,92.4579512 360.108894,93.4319814 C360.408433,94.0688474 360.670529,94.7057133 360.895183,95.3051166 C361.194722,95.9419825 361.456818,96.5413858 361.681472,97.1782517 C361.718914,97.2531771 361.756357,97.3281026 361.793799,97.403028 C361.868684,97.5903415 362.018453,97.7027296 362.205665,97.7027296 C362.280549,97.7027296 362.317992,97.7027296 362.392876,97.6652669 C362.580088,97.5903415 362.729857,97.403028 362.692415,97.1782517 C362.692415,97.140789 362.692415,97.0995801 362.654973,97.0658636 M100.483746,80.2413637 C100.259092,80.0952591 99.996996,80.1327218 99.8097844,80.3200354 C98.2746486,82.1931705 96.8143976,84.1412311 95.3167042,86.0518289 C95.2792619,86.1267543 95.2043772,86.164217 95.1669349,86.2391424 C94.9797232,86.4639187 95.0171655,86.7636203 95.2418195,86.9134711 C95.3167042,86.9883965 95.4290312,87.0258592 95.5039159,87.0258592 C95.6162429,87.0258592 95.7285699,86.9883965 95.8034546,86.9134711 C95.8408969,86.8760084 95.8408969,86.8760084 95.8783392,86.8385457 C97.4509173,84.8155597 98.986053,82.8674992 100.558631,80.9194386 C100.7084,80.7321251 100.670958,80.4324235 100.483746,80.2413637 M356.36466,83.3545143 C355.87791,82.4554094 355.428602,81.5937673 354.941852,80.7321251 C354.230447,79.3834678 353.481601,78.0722732 352.695312,76.7610786 C352.582985,76.5363024 352.283446,76.4613769 352.058792,76.5737651 C351.834138,76.7236159 351.759253,76.9858548 351.909023,77.210631 C352.695312,78.5592883 353.444158,79.9454083 354.230447,81.368991 C354.642313,82.1557078 355.091621,82.976141 355.503487,83.8040667 C355.615814,83.9539176 355.765583,84.028843 355.915352,84.028843 C355.990237,84.028843 356.065122,84.028843 356.140006,83.987634 C356.36466,83.8789922 356.476987,83.5792905 356.36466,83.3545143 M110.106426,68.6691347 C109.881772,68.5192839 109.619676,68.5567466 109.432464,68.7440601 C107.822444,70.6171953 106.174981,72.5277931 104.564961,74.4758537 C104.415192,74.7006299 104.415192,75.0003315 104.639846,75.1501823 C104.71473,75.2251077 104.827057,75.2625704 104.939384,75.2625704 C105.051711,75.2625704 105.201481,75.187645 105.276365,75.0752569 C106.886386,73.1271964 108.533848,71.2165985 110.143869,69.3434634 C110.293638,69.1561499 110.293638,68.8564482 110.106426,68.6691347 M348.726424,70.3174936 C347.3785,68.2195823 345.955691,66.1591336 344.49544,64.0986849 C344.345671,63.8739087 344.046132,63.836446 343.821478,63.9862968 C343.634267,64.1361476 343.559382,64.4358493 343.709151,64.6606255 C345.169402,66.6836114 346.629653,68.7440601 347.977578,70.8419715 C348.052462,70.9543596 348.202232,71.029285 348.352001,71.029285 C348.426886,71.029285 348.539213,71.029285 348.614097,70.9543596 C348.838751,70.8419715 348.876194,70.5422699 348.726424,70.3174936 M120.140972,57.4677865 C119.95376,57.3179357 119.654222,57.3179357 119.504452,57.5052492 C117.782105,59.3034589 116.0972,61.1765941 114.412295,63.0497293 C114.225083,63.2745055 114.262525,63.5367444 114.449737,63.7240579 C114.524622,63.7989833 114.636949,63.836446 114.749276,63.836446 C114.861603,63.836446 115.011372,63.7989833 115.086257,63.6865952 C116.771162,61.8134601 118.493509,59.9403249 120.178414,58.1421152 C120.365626,57.9548016 120.328184,57.6551 120.140972,57.4677865 M339.927476,58.1046524 C338.354898,56.1191292 336.707435,54.1710686 335.059972,52.2979335 C334.910203,52.11062 334.610664,52.11062 334.423452,52.2604708 C334.198798,52.4477843 334.198798,52.7474859 334.38601,52.9347994 C335.99603,54.7704719 337.643493,56.7185324 339.178629,58.666593 C339.290956,58.7789811 339.403283,58.8539065 339.553052,58.8539065 C339.665379,58.8539065 339.740264,58.8164438 339.852591,58.7415184 C340.039803,58.5916676 340.077245,58.291966 339.927476,58.1046524 M130.69971,46.7534534 C130.512499,46.5661399 130.250402,46.5661399 130.063191,46.7534534 C128.303401,48.4392751 126.506169,50.2374848 124.708937,52.069411 C124.521725,52.2604708 124.521725,52.5601724 124.708937,52.7100232 C124.783821,52.8224113 124.896148,52.859874 125.045918,52.859874 C125.158245,52.859874 125.270572,52.8224113 125.382899,52.7100232 C127.142689,50.9118135 128.939921,49.1136037 130.69971,47.4277821 C130.886922,47.2404686 130.886922,46.9407669 130.69971,46.7534534 M329.967815,46.7909161 C328.208025,44.9927064 326.410793,43.1944966 324.576118,41.508675 C324.388907,41.3213615 324.089368,41.3213615 323.902156,41.508675 C323.752387,41.6959885 323.752387,41.9956901 323.939599,42.1830036 C325.774273,43.8688253 327.571505,45.667035 329.293853,47.4277821 C329.368737,47.5027075 329.481064,47.5776329 329.630834,47.5776329 C329.743161,47.5776329 329.855488,47.5401702 329.930372,47.4277821 C330.117584,47.2404686 330.117584,46.9407669 329.967815,46.7909161 M141.857526,36.6385236 C141.670314,36.4512101 141.370776,36.4137474 141.183564,36.6010609 C139.83564,37.7624047 138.487716,38.9237485 137.177234,40.122555 C136.840253,40.3847939 136.540715,40.6844955 136.241176,40.9841971 C136.016522,41.1715107 135.754425,41.3588242 135.529771,41.5836004 C135.34256,41.7671676 135.34256,42.0706155 135.492329,42.2579291 C135.604656,42.3328545 135.716983,42.4077799 135.866752,42.4077799 C135.979079,42.4077799 136.091407,42.3703172 136.166291,42.2953918 C136.578157,41.9207647 136.990023,41.5461377 137.401888,41.1715107 L138.749812,39.9352415 C139.760755,39.0323903 140.771698,38.1744944 141.782641,37.3128522 C141.969853,37.1255387 142.007295,36.8258371 141.857526,36.6385236 M318.959768,36.4886728 C317.050209,34.8403138 315.065765,33.2668803 313.118764,31.7309095 C312.89411,31.5810587 312.594571,31.6185214 312.444802,31.8058349 C312.295033,32.0306111 312.332475,32.3303127 312.519687,32.4764173 C314.50413,33.9786717 316.451132,35.5895679 318.360691,37.2004641 C318.435576,37.2753895 318.547903,37.3128522 318.66023,37.3128522 C318.772557,37.3128522 318.922326,37.2379268 318.997211,37.1255387 C319.184422,36.9382252 319.14698,36.6385236 318.959768,36.4886728 M153.614419,27.2728478 C153.46465,27.0855343 153.165111,27.0106089 152.977899,27.1979224 C150.993456,28.6215051 149.009012,30.1949387 146.987126,31.7683722 C146.799914,31.9556857 146.762472,32.2179246 146.912241,32.4427009 C147.024568,32.555089 147.136895,32.6300144 147.286665,32.6300144 C147.398992,32.6300144 147.473876,32.5925517 147.586203,32.5176263 C149.570647,30.90673 151.555091,29.3707592 153.539534,27.9471765 C153.726746,27.7935794 153.764188,27.497624 153.614419,27.2728478 M307.015664,27.2728478 C304.956335,25.8118024 302.859564,24.4256824 300.725351,23.0770251 C300.53814,22.964637 300.238601,23.0020997 300.088832,23.2268759 C299.939062,23.4516521 300.013947,23.7513537 300.238601,23.8637418 C302.335372,25.2123992 304.432142,26.5985192 306.491471,28.0221019 C306.566356,28.0970273 306.678683,28.0970273 306.753567,28.0970273 C306.903337,28.0970273 307.053106,28.0595646 307.127991,27.9097138 C307.27776,27.6849376 307.240318,27.4226986 307.015664,27.2728478 M166.120159,18.8812023 C165.970389,18.6938888 165.670851,18.6189634 165.483639,18.7313515 C163.349426,20.0425461 161.215213,21.3912034 159.118442,22.8147862 C158.893788,22.964637 158.856346,23.2643386 159.006115,23.4891148 C159.081,23.6015029 159.230769,23.6764283 159.380539,23.6764283 C159.492866,23.6764283 159.56775,23.6389656 159.642635,23.6015029 C161.739406,22.1741739 163.836176,20.8292629 165.970389,19.555531 C166.195043,19.4056802 166.232486,19.1059786 166.120159,18.8812023 M294.28527,19.2183667 C292.076172,17.9820975 289.829632,16.7458283 287.620534,15.6182009 C287.39588,15.5095591 287.096342,15.6182009 286.984015,15.8467234 C286.871688,16.0714996 286.984015,16.3337385 287.208669,16.4798431 C289.417766,17.6074704 291.626864,18.7688142 293.798519,20.0050834 C293.873404,20.0800088 293.948289,20.0800088 294.023173,20.0800088 C294.210385,20.0800088 294.360154,20.0050834 294.435039,19.8552326 C294.584808,19.6304564 294.509924,19.3307548 294.28527,19.2183667 M179.337303,11.7632888 C179.224976,11.5010498 178.96288,11.4261244 178.700783,11.5385125 C176.491685,12.5874682 174.207703,13.7450658 171.998605,14.9476185 C171.773951,15.0974693 171.699067,15.3597083 171.811394,15.5844845 C171.886278,15.771798 172.07349,15.8467234 172.223259,15.8467234 C172.298144,15.8467234 172.373029,15.8092607 172.447913,15.771798 C174.657011,14.5729915 176.903551,13.4491104 179.112649,12.362692 C179.337303,12.2503039 179.44963,11.988065 179.337303,11.7632888 M280.806029,12.362692 C278.522047,11.351199 276.200622,10.339706 273.879198,9.40313847 C273.654544,9.32821306 273.355005,9.44060117 273.28012,9.66537739 C273.167793,9.92387004 273.28012,10.1898552 273.542217,10.3022433 C275.863641,11.2013482 278.185066,12.2128412 280.431606,13.2243342 C280.506491,13.2617969 280.543933,13.2617969 280.618818,13.2617969 C280.806029,13.2617969 280.993241,13.1494088 281.068126,12.999558 C281.180453,12.7335728 281.068126,12.4750801 280.806029,12.362692 M192.704216,5.84418168 C190.345349,6.63089844 187.94904,7.53000332 185.627615,8.46657089 C185.365519,8.578959 185.253192,8.84119792 185.365519,9.06222787 C185.440403,9.25328766 185.627615,9.36567577 185.777384,9.36567577 C185.852269,9.36567577 185.927154,9.36567577 185.964596,9.32821306 C188.286021,8.39164549 190.644888,7.49254061 193.003755,6.70582385 C193.228409,6.63089844 193.378178,6.36865952 193.265851,6.1438833 C193.190967,5.88164438 192.92887,5.76925627 192.704216,5.84418168 M266.802596,6.78074925 C264.406287,5.95656979 262.009977,5.20731573 259.613668,4.53298707 C259.351572,4.45806166 259.089475,4.60791248 259.014591,4.8701514 C258.939706,5.09492762 259.089475,5.35716654 259.351572,5.43209194 C261.710439,6.1064206 264.144191,6.85567466 266.503058,7.67985413 L266.652827,7.67985413 C266.840039,7.67985413 267.02725,7.56746602 267.102135,7.3801525 C267.17702,7.11416731 267.064693,6.85567466 266.802596,6.78074925 M207.269284,1.94806056 C204.79809,2.43132943 202.326896,2.99701624 199.930587,3.6713449 C199.668491,3.7088076 199.518721,3.97104652 199.593606,4.23328545 C199.631048,4.42059896 199.81826,4.57044977 200.042914,4.57044977 L200.155241,4.57044977 C202.55155,3.93358382 205.022744,3.36789701 207.456496,2.88462814 C207.68115,2.84716543 207.868362,2.58492651 207.830919,2.32268759 C207.756035,2.09791137 207.531381,1.91059786 207.269284,1.94806056 M252.27497,2.69731462 C249.803776,2.17283678 247.29514,1.68582164 244.861388,1.31119461 C244.599292,1.2737319 244.337196,1.46104542 244.299753,1.68582164 C244.262311,1.94806056 244.449523,2.21029948 244.711619,2.24776218 C247.145371,2.62238921 249.616565,3.07194165 252.087759,3.59641949 C252.125201,3.6338822 252.162643,3.6338822 252.162643,3.6338822 C252.387298,3.6338822 252.574509,3.48403138 252.649394,3.25925517 C252.686836,2.99701624 252.537067,2.77224003 252.27497,2.69731462 M222.283661,0.112388109 L222.246218,0.112388109 C219.737582,0.262238921 217.191503,0.48701514 214.720309,0.786716764 C214.458213,0.824179467 214.271001,1.04895569 214.308443,1.31119461 C214.345886,1.53597083 214.533097,1.72328434 214.795194,1.72328434 L214.832636,1.72328434 C217.30383,1.42358272 219.812466,1.1988065 222.321103,1.04895569 C222.545757,1.04895569 222.770411,0.824179467 222.732969,0.558194276 C222.732969,0.337164328 222.508315,0.112388109 222.283661,0.112388109 M237.335479,0.412089734 C234.864285,0.187313515 232.318206,0.0374627031 229.80957,2.22044605e-16 C229.547473,2.22044605e-16 229.322819,0.187313515 229.322819,0.449552437 C229.322819,0.711791358 229.510031,0.936567577 229.772127,0.936567577 C232.280764,0.97403028 234.7894,1.12388109 237.260594,1.34865731 L237.298037,1.34865731 C237.560133,1.34865731 237.747345,1.16134379 237.784787,0.899104873 C237.784787,0.633119682 237.597575,0.412089734 237.335479,0.412089734" id="Fill-6" fill="#D8D5DB" transform="translate(199.500000, 169.500000) scale(-1, 1) translate(-199.500000, -169.500000) "></path>
                    <path d="M160.404299,101.870476 L155.522145,110.320969 L154.883709,111.405325 L147.819606,123.557583 L146.283605,126.249776 L100.99223,204.323362 L93.4812225,217.260844 L85.970215,204.323362 L59.1183631,158.032605 L54.987309,150.928208 L45.7825693,135.036793 L24.2297332,97.8695782 L162.732712,97.8695782 L160.404299,101.870476 Z M21,96 L45.7825693,138.738558 L52.8429163,150.928208 L56.977726,158.032605 L83.8258223,204.323362 L93.4812225,221 L103.170422,204.323362 L147.969826,127.034999 L149.547138,124.342806 L161.793836,103.253964 L165.173789,97.3834879 L165.474229,96.8973975 L166,96 L21,96 Z" id="Fill-8" fill="#FFFFFF" transform="translate(93.500000, 158.500000) scale(-1, 1) translate(-93.500000, -158.500000) "></path>
                    <path d="M370.967785,286.637357 C371.0805,287.049504 370.892643,287.652738 370.479357,288.398351 C369.54007,290.159345 367.289541,292.669698 364.922539,294.730435 C364.430353,295.14633 363.941924,295.55473 363.453496,295.891942 C362.02578,297.053449 360.635637,297.956426 359.546065,298.289891 C355.713777,299.563802 339.144767,297.39066 335.124622,295.217519 C334.865379,295.067647 334.673765,294.917775 334.485908,294.730435 C332.836521,294.842839 330.39062,294.880307 327.422475,294.730435 C326.069903,294.659246 324.604616,294.543096 323.026615,294.318288 C319.307042,293.90614 315.061468,293.044377 310.477751,291.583127 C308.223464,290.912451 305.856463,290.046941 303.45189,288.997838 C301.197603,287.986203 298.868173,286.824697 296.538743,285.47585 C295.975171,285.176107 295.561886,284.801427 295.073457,284.50543 C295.524314,287.952482 295.975171,291.358319 296.4636,294.730435 C296.613886,295.667134 296.764172,296.603833 296.876886,297.503064 C297.290172,300.163289 297.703458,302.789793 298.154316,305.371335 C299.920174,315.525151 301.949032,325.07948 304.391176,333.622174 C304.616605,334.521405 304.879605,335.424383 305.142605,336.282399 C304.353605,336.394803 303.564604,336.510953 302.813175,336.61961 C303.001033,337.481373 303.151318,338.384351 303.301604,339.279835 C305.180177,349.396183 306.607892,361.873013 307.659892,374.687054 C263.55101,392.109653 222.485415,396.193661 194.156542,378.920933 C185.139394,373.450611 177.437247,365.807148 171.313101,355.728268 C170.336243,354.117146 169.359385,352.506024 168.382528,350.894902 C168.570385,345.61192 168.795814,341.153233 168.983671,338.118329 C168.269813,338.043393 167.894099,338.043393 167.894099,338.043393 C167.894099,331.936116 168.157099,323.917973 168.570385,314.663388 C168.607956,314.288709 168.607956,313.914029 168.607956,313.501881 C168.758242,310.879124 168.908528,308.181432 169.096385,305.371335 C169.246671,301.924283 169.4721,298.406042 169.697528,294.730435 C170.035671,289.409986 170.411386,283.864728 170.824672,278.244535 C161.657238,275.809118 153.992662,273.186361 149.671946,270.563604 C144.036228,267.15402 141.894655,262.395589 142.044941,257.712095 C141.969798,256.775396 141.969798,255.763761 142.195227,254.714658 C144.3368,247.633215 151.700804,226.538755 160.041666,205.594168 L150.799089,202.446859 C150.799089,202.446859 177.812961,154.450408 193.668113,143.884444 C193.743256,143.846976 193.780828,143.809508 193.855971,143.77204 C199.454117,138.601462 207.531978,135.266814 219.629985,133.917968 C219.705128,123.914023 218.916128,107.015975 218.089556,94.0895303 C214.144554,93.1902994 211.476981,89.9305872 209.974123,87.2328944 C209.786265,86.9331507 209.598408,86.6334071 209.485694,86.3711314 C208.884551,85.2096247 208.546408,84.2354579 208.396122,83.7483744 C207.56955,80.4511943 208.35855,77.7160335 209.974123,75.9550396 C209.63598,73.2198788 209.147551,68.723724 208.959693,64.0027616 C208.583979,55.3101957 209.072408,45.7933349 213.01741,44.9315719 C212.979839,44.819168 212.904696,44.7442321 212.867124,44.6692962 C211.852695,41.5594558 213.693696,38.1124039 213.768839,38 L215.421983,38.861763 C215.421983,38.8992309 213.919125,41.7467956 214.632982,44.0698089 C217.788984,40.585289 228.421705,39.4612503 239.580425,40.0982055 C240.21914,40.0982055 240.895426,40.1731415 241.534141,40.2106094 C243.825999,40.3979492 246.117857,40.6227569 248.372144,40.9599685 C249.123573,41.0349044 249.837431,41.1473083 250.551289,41.2971801 C250.927003,41.3346481 251.340289,41.409584 251.716003,41.4845199 C254.158148,41.8966674 256.487578,42.4212188 258.62915,43.0207061 C262.311152,44.0323409 265.392011,45.3062514 267.458441,46.7675017 C268.134727,47.2171172 268.660727,47.7042006 269.111585,48.1912841 C270.990157,50.3644255 271.290729,51.9006117 270.464157,52.9122465 C269.975728,53.4742659 269.186728,53.8864134 268.134727,54.186157 C268.585584,57.3334654 268.773442,60.0686262 268.848585,62.5789792 C269.074013,63.1784665 269.299442,63.8154218 269.524871,64.452377 C269.712728,65.0143964 269.900585,65.6138837 270.088442,66.213371 C270.126014,66.2508389 270.163585,66.2508389 270.201157,66.2883069 C270.426586,66.4756467 270.652014,66.6255185 270.877443,66.8128583 C271.704015,67.5622174 272.455444,68.4989163 273.019016,69.7353588 L271.3283,70.5221859 C271.290729,70.44725 271.253157,70.4097821 271.215586,70.3348461 C271.666443,72.2457119 272.079729,74.2315136 272.380301,76.3297191 C272.831158,79.4395595 273.319587,82.5493998 273.808016,85.5843043 C273.958302,86.7458109 274.108588,87.9073176 274.258873,89.0313562 C274.597016,91.3543695 274.897588,93.6399149 275.085445,95.8130563 C275.160588,96.4874795 275.235731,97.1244348 275.235731,97.76139 C276.024732,107.65293 275.085445,115.858413 269.149156,119.979888 C268.022013,120.804183 266.669441,121.478606 265.129011,121.928222 C263.175296,122.565177 260.845866,122.902389 258.140721,122.939857 C258.215864,125.562613 258.36615,128.110434 258.591579,130.508384 C258.704293,131.445083 258.817008,132.381781 258.967293,133.243544 C259.080008,134.142775 259.230293,135.042006 259.418151,135.866301 C269.449728,138.264251 277.001589,142.31079 281.773163,147.818579 C281.998592,148.043387 282.261592,148.268195 282.487021,148.530471 C285.154594,151.11576 287.747024,155.09111 290.189168,159.845793 C293.270027,165.803198 296.163029,173.038261 298.717887,180.265829 C298.905745,180.827849 299.093602,181.427336 299.319031,181.989355 C299.506888,182.626311 299.732316,183.225798 299.920174,183.862753 C300.972174,186.972594 301.949032,190.082434 302.850747,193.046149 C303.527033,195.253012 304.128176,197.392432 304.729319,199.411955 C307.622321,209.569518 309.313036,217.063109 309.313036,217.063109 L304.729319,218.145933 L302.850747,218.595549 L301.498175,218.936507 C301.949032,220.731222 302.399889,222.492216 302.850747,224.290678 C302.888318,224.478018 302.963461,224.702825 303.001033,224.893912 C303.602176,227.216925 304.165748,229.577406 304.729319,231.859205 C307.622321,243.586675 310.064465,254.452383 311.154037,261.64623 C314.385182,264.306455 316.752183,268.465398 320.246328,272.328344 C323.778044,276.221265 328.549619,279.743253 336.62748,281.129567 C336.665052,281.129567 336.665052,281.167035 336.702623,281.167035 C339.862382,278.69415 345.719771,275.775396 349.289059,274.688826 C349.777488,274.572675 350.194531,274.460271 350.566488,274.385335 C350.86706,274.310399 351.133817,274.272931 351.355489,274.272931 C352.862104,273.973188 353.083775,274.085592 353.98549,274.647611 C354.323633,274.909887 354.774491,275.247098 355.488348,275.659246 C358.418921,277.382772 361.49978,278.993894 364.167353,280.567548 C367.473641,282.482161 370.066071,284.314344 370.8175,286.262677 C370.892643,286.378828 370.930214,286.524953 370.967785,286.637357" id="Fill-10" fill="#D1CDD3" transform="translate(256.500000, 214.000000) scale(-1, 1) translate(-256.500000, -214.000000) "></path>
                    <path d="M209.529809,275.935614 C206.851841,274.33349 207.633071,274.130879 204.605803,274.686182 C201.338157,275.290262 194.307083,278.6596 190.750231,281.466131 C190.712672,281.462379 190.68638,281.443619 190.648821,281.436115 C174.543456,278.67836 171.711495,267.298402 165.198738,261.910462 C161.589303,238.287574 143.40316,174 143.40316,174 L116,184.179304 C119.992538,211.265331 136.060345,262.780937 140.229411,274.404779 C140.912988,275.811796 141.795628,276.929906 142.783434,277.837902 C144.150587,280.723226 146.606956,283.507245 150.576958,285.799746 C167.005333,295.288673 182.554823,295.419994 188.504194,295.041038 C188.695745,295.232392 188.913588,295.397482 189.161479,295.536308 C193.191576,297.735007 209.725116,299.888682 213.586198,298.624242 C217.511129,297.33729 225.548789,289.210356 224.970378,286.959128 C224.031399,283.282122 216.24163,279.950304 209.529809,275.935614" id="Fill-12" fill="#FFCA9E" transform="translate(170.500000, 236.500000) scale(-1, 1) translate(-170.500000, -236.500000) "></path>
                    <path d="M182.408843,156.472478 C174.664973,173.870666 177.510657,229 177.510657,229 L227,217.208312 C227,217.208312 202.8286,110.575833 182.408843,156.472478" id="Fill-14" fill="#FFBB12" transform="translate(202.000000, 187.000000) scale(-1, 1) translate(-202.000000, -187.000000) "></path>
                    <path d="M319,363.233358 C310.442977,367.518608 301.878444,371.345663 293.430308,374.650676 C249.349811,392.114665 208.314398,396.208375 180,378.894613 C180.41302,362.632447 180.976229,345.694255 181.426796,337.995077 C181.501891,337.093709 181.576985,336.305013 181.614533,335.666545 L196.78363,335.366089 L197.459481,335.366089 L197.497029,335.328532 L279.575365,333.717338 L279.654214,333.717338 L284.907077,333.600911 L290.163695,333.488241 L314.419233,333 C314.685818,334.126709 314.944895,335.328532 315.170178,336.534111 C316.747164,344.195732 317.986224,353.393433 319,363.233358" id="Fill-16" fill="#232323" transform="translate(249.500000, 361.500000) scale(-1, 1) translate(-249.500000, -361.500000) "></path>
                    <path d="M242.420878,133.091782 C212.962465,134.061357 203.004216,143.985461 197.925697,161.149557 C192.157039,180.638386 182,298.350014 182,337.683307 C182,337.683307 270.161447,343.920032 319,335.927591 C303.685676,284.300537 302.031594,191.475912 301.724032,163.818695 C301.495236,143.072039 279.763374,131.86016 242.420878,133.091782" id="Fill-18" fill="#FFD366" transform="translate(250.500000, 236.500000) scale(-1, 1) translate(-250.500000, -236.500000) "></path>
                    <mask id="mask-4" fill="white">
                        <use xlink:href="#path-3"></use>
                    </mask>
                    <g id="Clip-21" transform="translate(199.500000, 204.000000) scale(-1, 1) translate(-199.500000, -204.000000) "></g>
                    <path d="M228.315305,85.4398655 C231.259386,83.2333897 246.631068,85.2354921 242.205425,54.1366724 C240.59056,42.7901638 229.869231,50.3633338 222.278606,51.8772109 C214.684173,53.3910879 219.513532,86 219.513532,86 L228.315305,85.4398655 Z" id="Fill-22" fill="#232323" mask="url(#mask-4)" transform="translate(230.500000, 67.000000) scale(-1, 1) translate(-230.500000, -67.000000) "></path>
                    <path d="M225,77 C226.245112,85.1960755 228.735337,129.536919 227.698363,139.836579 C226.661389,150.136239 275.856334,153.075236 269.418918,141.729429 C262.985218,130.379858 267.553108,92.7599469 267.553108,92.7599469 L225,77 Z" id="Fill-23" fill="#FFCA9E" mask="url(#mask-4)" transform="translate(247.500000, 113.000000) scale(-1, 1) translate(-247.500000, -113.000000) "></path>
                    <path d="M227.016312,79 L267,93.5530556 C267,93.5530556 264.300503,115.526056 265.929313,131 C235.441324,128.656264 227.6162,90.37901 227.103638,83.0081289 C227.016312,81.6192481 226.974548,80.279431 227.016312,79" id="Fill-24" fill="#D88344" mask="url(#mask-4)" transform="translate(247.000000, 105.000000) scale(-1, 1) translate(-247.000000, -105.000000) "></path>
                    <path d="M266.883427,76.5043595 C270.539243,101.626693 276.745889,126.678071 246.203347,122.55139 C215.657059,118.428444 210.914987,79.3836994 211.001138,72.0228967 C211.476844,32.7242021 259.695405,27.1037007 266.883427,76.5043595" id="Fill-25" fill="#FFCA9E" mask="url(#mask-4)" transform="translate(240.500000, 82.000000) scale(-1, 1) translate(-240.500000, -82.000000) "></path>
                    <path d="M221.800503,44.1364138 C221.064738,41.7965758 222.5663,38.9208395 222.581316,38.8944219 L220.929597,38 C220.850765,38.1434094 219.022614,41.6116532 220.017398,44.7289212 C220.051184,44.8270434 220.13377,44.8949742 220.167555,44.9930965 C212.757346,46.634757 217.487266,79 217.487266,79 L226.162541,78.441458 C229.06431,76.2450295 239.136037,60.7794551 241.354595,51.4465206 C257.214844,54.1448822 285.365378,58.9641937 276.209603,48.2726436 C269.00586,39.8605486 228.504978,36.6866716 221.800503,44.1364138 Z" id="Fill-26" fill="#232323" mask="url(#mask-4)" transform="translate(247.000000, 58.500000) scale(-1, 1) translate(-247.000000, -58.500000) "></path>
                    <path d="M323.885159,276.308217 C320.779656,276.480313 308.729853,278.56417 304.500203,277.587713 C290.284819,274.284218 253.65041,257.931361 233.930842,248.79157 C246.063358,222.584348 263.92188,176.200746 263.92188,176.200746 L235.840764,168 C222.809682,192.022351 204.812051,242.756987 201.18771,254.530596 C200.984687,255.585619 200.969649,256.577041 201.033563,257.52731 C200.905734,262.185124 203.048757,266.940211 208.677011,270.3522 C224.287239,279.813736 283.175247,288.994682 299.484778,290.786724 C299.785553,291.392801 300.18408,291.94276 300.830747,292.305658 C304.819777,294.535423 322.971555,296.204006 326.704926,296.86246 C331.385739,297.685527 345.593603,298.882717 344.980774,296.989661 C343.976937,293.888193 338.709613,275.481408 323.885159,276.308217" id="Fill-27" fill="#FFCA9E" mask="url(#mask-4)" transform="translate(273.000000, 233.000000) scale(-1, 1) translate(-273.000000, -233.000000) "></path>
                    <path d="M315.931772,143.797797 C300.072802,154.386268 273,202.549518 273,202.549518 L321.209313,219 C321.209313,219 357.768135,115.867699 315.931772,143.797797" id="Fill-28" fill="#FFBB12" mask="url(#mask-4)" transform="translate(304.500000, 179.000000) scale(-1, 1) translate(-304.500000, -179.000000) "></path>
                    <path d="M237.221653,74.8805757 C237.117653,75.983989 237.825653,76.9292913 238.805653,76.9965726 C239.789653,77.0604898 240.669653,76.2228376 240.777653,75.1194243 C240.885653,74.0193751 240.173653,73.0707087 239.189653,73.0034274 C238.209653,72.9395102 237.325653,73.7771624 237.221653,74.8805757" id="Fill-29" fill="#232323" mask="url(#mask-4)" transform="translate(239.000000, 75.000000) scale(-1, 1) translate(-239.000000, -75.000000) "></path>
                    <path d="M217.222024,74.8805757 C217.118024,75.983989 217.826024,76.9292913 218.806024,76.9965726 C219.790024,77.0604898 220.670024,76.2228376 220.778024,75.1194243 C220.882024,74.0193751 220.170024,73.0707087 219.190024,73.0034274 C218.210024,72.9395102 217.326024,73.7771624 217.222024,74.8805757" id="Fill-30" fill="#232323" mask="url(#mask-4)" transform="translate(219.000000, 75.000000) scale(-1, 1) translate(-219.000000, -75.000000) "></path>
                    <path d="M238.550576,68 L237,66.981463 C240.271382,61.9298182 245.763158,63.1013223 246,63.1535549 L245.596628,64.9742364 C245.418997,64.9369273 241.10773,64.048972 238.550576,68" id="Fill-31" fill="#232323" mask="url(#mask-4)" transform="translate(241.500000, 65.500000) scale(-1, 1) translate(-241.500000, -65.500000) "></path>
                    <path d="M220.387927,70 C218.509543,65.6413802 214.291167,65.8799493 214.124279,65.8988834 L214,64.0092645 C214.227253,63.9941173 219.603196,63.6419438 222,69.2085564 L220.387927,70 Z" id="Fill-32" fill="#232323" mask="url(#mask-4)" transform="translate(218.000000, 67.000000) scale(-1, 1) translate(-218.000000, -67.000000) "></path>
                    <path d="M244.952345,98 C241.806404,98 235.756515,97.1176471 232,90.9485294 L233.593448,90 C238.146687,97.4779412 246.314966,96.1139706 246.661206,96.0514706 L247,97.8566176 C246.970216,97.8639706 246.184661,98 244.952345,98" id="Fill-33" fill="#232323" mask="url(#mask-4)" transform="translate(239.500000, 94.000000) scale(-1, 1) translate(-239.500000, -94.000000) "></path>
                    <polygon id="Fill-34" fill="#D88344" mask="url(#mask-4)" transform="translate(224.500000, 81.000000) scale(-1, 1) translate(-224.500000, -81.000000) " points="229 89 220 88.8782569 220.025947 87.0336638 226.516474 87.1222043 222.509473 73.5201752 224.285008 73"></polygon>
                    <path d="M275.941922,80.34138 C278.691547,86.6607814 282.139786,92.7746119 273.498641,93.9090586 C264.857497,95.0473123 260.837665,85.1608753 260.348262,83.2231793 C257.733129,72.8875319 270.528598,67.9157619 275.941922,80.34138" id="Fill-35" fill="#FFCA9E" mask="url(#mask-4)" transform="translate(269.500000, 83.500000) scale(-1, 1) translate(-269.500000, -83.500000) "></path>
                    <path d="M386.681918,305 L28.3180822,305 C25.393137,305 23,302.525 23,299.5 C23,296.475 25.393137,294 28.3180822,294 L386.681918,294 C389.606863,294 392,296.475 392,299.5 C392,302.525 389.606863,305 386.681918,305" id="Fill-36" fill="#FFFFFF" mask="url(#mask-4)" transform="translate(207.500000, 299.500000) scale(-1, 1) translate(-207.500000, -299.500000) "></path>
                    <path d="M389.678918,305 L254.321082,305 C251.394487,305 249,302.525 249,299.5 C249,296.475 251.394487,294 254.321082,294 L389.678918,294 C392.605513,294 395,296.475 395,299.5 C395,302.525 392.605513,305 389.678918,305" id="Fill-37" fill="#D8D5DB" mask="url(#mask-4)" transform="translate(322.000000, 299.500000) scale(-1, 1) translate(-322.000000, -299.500000) "></path>
                    <path d="M141.644563,286 L30.4189376,286 C26.1733129,286 23.3553872,282.556666 24.127319,278.312383 L36.25714,211.687617 C37.032819,207.439591 41.1023234,204 45.3554426,204 L156.57732,204 C160.826692,204 163.644618,207.439591 162.872686,211.687617 L150.742865,278.312383 C149.967186,282.556666 145.897682,286 141.644563,286" id="Fill-38" fill="#2B2B2B" mask="url(#mask-4)" transform="translate(93.500000, 245.000000) scale(-1, 1) translate(-93.500000, -245.000000) "></path>
                    <path d="M138.644567,286 L27.4189379,286 C23.173313,286 20.3553872,282.556666 21.127319,278.312383 L33.2571405,211.687617 C34.0290723,207.439591 38.102324,204 42.3516962,204 L153.573578,204 C157.826697,204 160.644623,207.439591 159.872691,211.687617 L147.739123,278.312383 C146.967191,282.556666 142.893939,286 138.644567,286" id="Fill-39" fill="#232323" mask="url(#mask-4)" transform="translate(90.500000, 245.000000) scale(-1, 1) translate(-90.500000, -245.000000) "></path>
                    <path d="M47,288 C47,291.298932 49.8443483,294 53.3220231,294 L169.677977,294 C173.155652,294 176,291.298932 176,288 L47,288 Z" id="Fill-41" fill="#232323" mask="url(#mask-4)" transform="translate(111.500000, 291.000000) scale(-1, 1) translate(-111.500000, -291.000000) "></path>
                    <path d="M152,288 C152,291.298932 154.82128,294 158.2753,294 L203.720978,294 C207.174998,294 210,291.298932 210,288 L152,288 Z" id="Fill-42" fill="#2B2B2B" mask="url(#mask-4)" transform="translate(181.000000, 291.000000) scale(-1, 1) translate(-181.000000, -291.000000) "></path>
                    <path d="M81.9981613,81 C78.1331757,81 75,84.1360294 75,88 L89,88 C89,84.1360294 85.8668243,81 81.9981613,81" id="Fill-43" fill="#2D74BE" mask="url(#mask-4)" transform="translate(82.000000, 84.500000) scale(-1, 1) translate(-82.000000, -84.500000) "></path>
                    <path d="M141,81 L141,149.923469 C141,153.84949 137.800483,157 133.85541,157 L82,157 L82,88.1138148 C82,84.1840659 85.1957709,81 89.1146177,81 L141,81 Z" id="Fill-44" fill="#3F9AF9" mask="url(#mask-4)" transform="translate(111.500000, 119.000000) scale(-1, 1) translate(-111.500000, -119.000000) "></path>
                    <path d="M140.888226,150.007357 L89,150 C89,153.866001 92.1961768,157 96.1380033,157 L148,156.988965 C144.058174,156.988965 140.888226,153.880715 140.888226,150.007357" id="Fill-45" fill="#D4E8FE" mask="url(#mask-4)" transform="translate(118.500000, 153.500000) scale(-1, 1) translate(-118.500000, -153.500000) "></path>
                    <polygon id="Fill-46" fill="#FFFFFF" mask="url(#mask-4)" transform="translate(112.000000, 92.000000) scale(-1, 1) translate(-112.000000, -92.000000) " points="90 93 134 93 134 91 90 91"></polygon>
                    <polygon id="Fill-47" fill="#FFFFFF" mask="url(#mask-4)" transform="translate(112.000000, 99.000000) scale(-1, 1) translate(-112.000000, -99.000000) " points="90 100 134 100 134 98 90 98"></polygon>
                    <polygon id="Fill-48" fill="#FFFFFF" mask="url(#mask-4)" transform="translate(112.000000, 106.000000) scale(-1, 1) translate(-112.000000, -106.000000) " points="90 107 134 107 134 105 90 105"></polygon>
                    <polygon id="Fill-49" fill="#FFFFFF" mask="url(#mask-4)" transform="translate(112.000000, 113.000000) scale(-1, 1) translate(-112.000000, -113.000000) " points="90 114 134 114 134 112 90 112"></polygon>
                    <polygon id="Fill-50" fill="#FFFFFF" mask="url(#mask-4)" transform="translate(112.000000, 120.000000) scale(-1, 1) translate(-112.000000, -120.000000) " points="90 121 134 121 134 119 90 119"></polygon>
                    <polygon id="Fill-51" fill="#FFFFFF" mask="url(#mask-4)" transform="translate(112.000000, 127.000000) scale(-1, 1) translate(-112.000000, -127.000000) " points="90 128 134 128 134 126 90 126"></polygon>
                    <polygon id="Fill-52" fill="#FFFFFF" mask="url(#mask-4)" transform="translate(112.000000, 134.000000) scale(-1, 1) translate(-112.000000, -134.000000) " points="90 135 134 135 134 133 90 133"></polygon>
                    <polygon id="Fill-53" fill="#FFFFFF" mask="url(#mask-4)" transform="translate(112.000000, 142.000000) scale(-1, 1) translate(-112.000000, -142.000000) " points="90 143 134 143 134 141 90 141"></polygon>
                    <path d="M45.5325991,118.533012 C35.5760645,128.488996 19.4276926,128.488996 9.46740091,118.533012 C-0.489133638,108.57327 -0.489133638,92.4295475 9.46740091,82.4698061 C19.4276926,72.5100646 35.5760645,72.5100646 45.5325991,82.4698061 C55.4891336,92.4295475 55.4891336,108.57327 45.5325991,118.533012" id="Fill-54" fill="#A57962" mask="url(#mask-4)" transform="translate(27.500000, 100.500000) scale(-1, 1) translate(-27.500000, -100.500000) "></path>
                    <path d="M35.6600216,100 L56,120.545437 C44.84375,131.818188 26.4725216,131.818188 15.3162716,120.545437 C10.5377155,115.714802 7.59213362,109.33745 7,102.533417 L35.6600216,100 Z" id="Fill-55" fill="#232323" mask="url(#mask-4)" transform="translate(31.500000, 114.500000) scale(-1, 1) translate(-31.500000, -114.500000) "></path>
                    <path d="M56,99.7786786 L27.1956176,103 C26.815412,99.8808269 26.9903066,96.7215241 27.7126974,93.6534252 C28.4312861,90.5889745 29.6859648,87.6631536 31.4273069,85 L56,99.7786786 Z" id="Fill-56" fill="#FFFFFF" mask="url(#mask-4)" transform="translate(41.500000, 94.000000) scale(-1, 1) translate(-41.500000, -94.000000) "></path>
                    <path d="M173.887574,64 L152.112426,64 C149.302485,64 147,61.7010297 147,58.8869689 L147,37.1130311 C147,34.3027577 149.302485,32 152.112426,32 L173.887574,32 C176.697515,32 179,34.3027577 179,37.1130311 L179,58.8869689 C179,61.7010297 176.697515,64 173.887574,64" id="Fill-57" fill="#232323" mask="url(#mask-4)" transform="translate(163.000000, 48.000000) scale(-1, 1) translate(-163.000000, -48.000000) "></path>
                    <path d="M179.887574,70 L158.112426,70 C155.302485,70 153,67.7010297 153,64.8869689 L153,43.1130311 C153,40.3027577 155.302485,38 158.112426,38 L179.887574,38 C182.697515,38 185,40.3027577 185,43.1130311 L185,64.8869689 C185,67.7010297 182.697515,70 179.887574,70" id="Fill-58" fill="#F07666" mask="url(#mask-4)" transform="translate(169.000000, 54.000000) scale(-1, 1) translate(-169.000000, -54.000000) "></path>
                </g>
            </g>
        </g>
    </g>
</svg>